<svg width="1044" height="140" viewBox="0 0 1044 140" fill="none" xmlns="http://www.w3.org/2000/svg">
<path d="M348.653 0L423.47 110.746L423.611 110.652L442.038 138L486.394 19.5151L507.839 74.7872L486.296 140H393.072L308.277 14.1614L298.852 0H348.653Z" fill="#333333"/>
<path d="M404.518 52.7655L379.413 15.604L389.928 0H440.241L404.602 52.889L404.518 52.7655Z" fill="#333333"/>
<path d="M278.725 0H223.265V29.2537H297.687L289.404 16.0423L278.725 0Z" fill="#333333"/>
<path d="M206.494 0H160.373V140H206.494V83.5821H260.5V54.3284H206.494V0Z" fill="#333333"/>
<path d="M223.265 108.657V140H273.578L294.542 108.657H223.265Z" fill="#333333"/>
<path d="M518.104 97.1642H534.672L517.214 52.3232L517.162 52.4689L496.804 0H542.964L598.518 140H551.349L545.249 124.328H509.422L513.571 110.889L518.104 97.1642Z" fill="#333333"/>
<path d="M62.8916 54.3284H88.0482V0H134.169V140H88.0482V83.5821H62.8916V54.3284Z" fill="#333333"/>
<path d="M46.1205 140H0V0H46.1205V140Z" fill="#333333"/>
<path d="M676.084 140V110.746H645.687V0H626.819L599.566 25.0746V98.209L617.385 140H676.084Z" fill="#333333"/>
<path d="M662.458 0V29.2537H690.759V45.9701H734.783V28.209L709.626 0H662.458Z" fill="#333333"/>
<path d="M831.217 140H862.663L889.916 114.925V25.0746L862.663 0H831.217V29.2537H843.795V110.746H831.217V140Z" fill="#333333"/>
<path d="M814.446 0H783L755.747 25.0746V114.925L783 140H814.446V110.746H801.867V29.2537H814.446V0Z" fill="#333333"/>
<path d="M997.992 140L949.63 60.4384L912.976 0H962.241L1004.17 68.2928V0H1044V140H997.992Z" fill="#333333"/>
<path d="M911.928 31.3433L953.855 100.299V140H911.928V31.3433Z" fill="#333333"/>
<path d="M295.59 140H345.904L358.928 120.672L333.96 83.0597L295.59 140Z" fill="#333333"/>
<path d="M670.843 89.8507V62.6866H734.783V140H692.855V89.8507H670.843Z" fill="#333333"/>
</svg>
