<svg width="410" height="450" viewBox="0 0 410 450" fill="none" xmlns="http://www.w3.org/2000/svg">
<g clip-path="url(#clip0_68_7839)">
<path d="M256.933 104.932L205 75L153.07 104.93L179.236 120.017L153.084 135.253V211.938H283.084L283.084 329.996L335 300V240.012L309.253 254.94V194.983L335 209.903V150L283.084 120.004L283.084 185.815H256.915L256.916 135.115L179.253 179.929V150.225L256.933 104.932Z" fill="#333333"/>
<path d="M257.006 345.026L230.84 329.939L256.916 314.747V238.062H126.916L126.916 120.004L74.9998 150V209.987L100.747 195.056L100.747 254.929L74.9998 240.01V300L126.916 329.996L126.916 264.185H153.084L153.084 314.865L230.747 270.338V299.776L153.049 345.058L205 375L257.006 345.026Z" fill="#333333"/>
</g>
<defs>
<clipPath id="clip0_68_7839">
<rect width="260" height="300" fill="white" transform="translate(74.9998 75)"/>
</clipPath>
</defs>
</svg>
