<svg width="336" height="376" viewBox="0 0 336 376" fill="none" xmlns="http://www.w3.org/2000/svg">
<path d="M219.933 67.9315L168 38L116.07 67.93L142.236 83.0169L116.085 98.2528V174.938H246.085L246.085 292.996L298 263V203.012L272.253 217.94V157.983L298 172.903V113L246.085 83.0042L246.085 148.815H219.916L219.916 98.1152L142.253 142.929V113.225L219.933 67.9315Z" fill="#333333"/>
<path d="M220.006 308.026L193.84 292.939L219.916 277.747V201.062H89.9157L89.9158 83.0041L38 113V172.987L63.7469 158.056L63.7469 217.929L38 203.01V263L89.9158 292.996L89.9157 227.185H116.085L116.085 277.865L193.747 233.338V262.776L116.049 308.058L168 338L220.006 308.026Z" fill="#333333"/>
</svg>
