<svg width="1069" height="151" viewBox="0 0 1069 151" fill="none" xmlns="http://www.w3.org/2000/svg">
<path d="M348.653 6L423.47 116.746L423.611 116.652L442.038 144L486.394 25.5151L507.839 80.7872L486.296 146H393.072L308.277 20.1614L298.852 6H348.653Z" fill="white"/>
<path d="M404.518 58.7655L379.413 21.604L389.928 6H440.241L404.602 58.889L404.518 58.7655Z" fill="white"/>
<path d="M278.725 6H223.265V35.2537H297.687L289.404 22.0423L278.725 6Z" fill="white"/>
<path d="M206.494 6H160.373V146H206.494V89.5821H260.5V60.3284H206.494V6Z" fill="white"/>
<path d="M223.265 114.657V146H273.578L294.542 114.657H223.265Z" fill="white"/>
<path d="M518.104 103.164H534.672L517.214 58.3232L517.162 58.4689L496.804 6H542.964L598.518 146H551.349L545.249 130.328H509.422L513.571 116.889L518.104 103.164Z" fill="white"/>
<path d="M62.8916 60.3284H88.0482V6H134.169V146H88.0482V89.5821H62.8916V60.3284Z" fill="white"/>
<path d="M46.1205 146H0V6H46.1205V146Z" fill="white"/>
<path d="M676.084 146V116.746H645.687V6H626.819L599.566 31.0746V104.209L617.385 146H676.084Z" fill="white"/>
<path d="M662.458 6V35.2537H690.759V51.9701H734.783V34.209L709.626 6H662.458Z" fill="white"/>
<path d="M831.217 146H862.663L889.916 120.925V31.0746L862.663 6H831.217V35.2537H843.795V116.746H831.217V146Z" fill="white"/>
<path d="M814.446 6H783L755.747 31.0746V120.925L783 146H814.446V116.746H801.867V35.2537H814.446V6Z" fill="white"/>
<path d="M997.992 146L949.63 66.4384L912.976 6H962.241L1004.17 74.2928V6H1044V146H997.992Z" fill="white"/>
<path d="M911.928 37.3433L953.855 106.299V146H911.928V37.3433Z" fill="white"/>
<path d="M295.59 146H345.904L358.928 126.672L333.96 89.0597L295.59 146Z" fill="white"/>
<path d="M670.843 95.8507V68.6866H734.783V146H692.855V95.8507H670.843Z" fill="white"/>
</svg>
