<svg width="494" height="509" viewBox="0 0 494 509" fill="none" xmlns="http://www.w3.org/2000/svg">
<path d="M298.933 81.9315L247 52L195.07 81.93L221.236 97.0169L195.085 112.253V188.938H325.085L325.085 306.996L377 277V217.012L351.253 231.94V171.983L377 186.903V127L325.085 97.0042L325.085 162.815H298.916L298.916 112.115L221.253 156.929V127.225L298.933 81.9315Z" fill="#333333"/>
<path d="M299.006 322.026L272.84 306.939L298.916 291.747V215.062H168.916L168.916 97.0041L117 127V186.987L142.747 172.056L142.747 231.929L117 217.01V277L168.916 306.996L168.916 241.185H195.085L195.085 291.865L272.747 247.338V276.776L195.049 322.058L247 352L299.006 322.026Z" fill="#333333"/>
<path d="M182.244 404L210.193 445.371L210.246 445.336L217.129 455.552L233.699 411.29L241.71 431.938L233.662 456.299H198.837L167.161 409.29L163.64 404H182.244Z" fill="#333333"/>
<path d="M203.113 423.711L193.735 409.829L197.663 404H216.458L203.145 423.757L203.113 423.711Z" fill="#333333"/>
<path d="M156.121 404H135.404V414.928H163.205L160.111 409.993L156.121 404Z" fill="#333333"/>
<path d="M129.139 404H111.91V456.299H129.139V435.223H149.313V424.295H129.139V404Z" fill="#333333"/>
<path d="M135.404 444.59V456.299H154.199L162.03 444.59H135.404Z" fill="#333333"/>
<path d="M245.545 440.297H251.734L245.212 423.546L245.193 423.6L237.588 404H254.831L275.584 456.299H257.964L255.685 450.445H242.301L243.851 445.424L245.545 440.297Z" fill="#333333"/>
<path d="M75.494 424.295H84.8916V404H102.12V456.299H84.8916V435.223H75.494V424.295Z" fill="#333333"/>
<path d="M69.2289 456.299H52V404H69.2289V456.299Z" fill="#333333"/>
<path d="M304.56 456.299V445.371H293.205V404H286.157L275.976 413.367V440.687L282.633 456.299H304.56Z" fill="#333333"/>
<path d="M299.47 404V414.928H310.042V421.173H326.488V414.538L317.09 404H299.47Z" fill="#333333"/>
<path d="M362.512 456.299H374.259L384.44 446.932V413.367L374.259 404H362.512V414.928H367.211V445.371H362.512V456.299Z" fill="#333333"/>
<path d="M356.247 404H344.5L334.319 413.367V446.932L344.5 456.299H356.247V445.371H351.548V414.928H356.247V404Z" fill="#333333"/>
<path d="M424.813 456.299L406.747 426.578L393.054 404H411.458L427.12 429.512V404H442V456.299H424.813Z" fill="#333333"/>
<path d="M392.663 415.709L408.325 441.468V456.299H392.663V415.709Z" fill="#333333"/>
<path d="M162.422 456.299H181.217L186.082 449.078L176.755 435.028L162.422 456.299Z" fill="#333333"/>
<path d="M302.602 437.565V427.417H326.488V456.299H310.825V437.565H302.602Z" fill="#333333"/>
</svg>
