<svg width="442" height="457" viewBox="0 0 442 457" fill="none" xmlns="http://www.w3.org/2000/svg">
<path d="M272.933 55.9315L221 26L169.07 55.93L195.236 71.0169L169.085 86.2528V162.938H299.085L299.085 280.996L351 251V191.012L325.253 205.94V145.983L351 160.903V101L299.085 71.0042L299.085 136.815H272.916L272.916 86.1152L195.253 130.929V101.225L272.933 55.9315Z" fill="#333333"/>
<path d="M273.006 296.026L246.84 280.939L272.916 265.747V189.062H142.916L142.916 71.0041L91 101V160.987L116.747 146.056L116.747 205.929L91 191.01V251L142.916 280.996L142.916 215.185H169.085L169.085 265.865L246.747 221.338V250.776L169.049 296.058L221 326L273.006 296.026Z" fill="#333333"/>
<path d="M156.244 378L184.193 419.371L184.246 419.336L191.129 429.552L207.699 385.29L215.71 405.938L207.662 430.299H172.837L141.161 383.29L137.64 378H156.244Z" fill="#333333"/>
<path d="M177.113 397.711L167.735 383.829L171.663 378H190.458L177.145 397.757L177.113 397.711Z" fill="#333333"/>
<path d="M130.121 378H109.404V388.928H137.205L134.111 383.993L130.121 378Z" fill="#333333"/>
<path d="M103.139 378H85.9096V430.299H103.139V409.223H123.313V398.295H103.139V378Z" fill="#333333"/>
<path d="M109.404 418.59V430.299H128.199L136.03 418.59H109.404Z" fill="#333333"/>
<path d="M219.545 414.297H225.734L219.212 397.546L219.193 397.6L211.588 378H228.831L249.584 430.299H231.964L229.685 424.445H216.301L217.851 419.424L219.545 414.297Z" fill="#333333"/>
<path d="M49.494 398.295H58.8916V378H76.1205V430.299H58.8916V409.223H49.494V398.295Z" fill="#333333"/>
<path d="M43.2289 430.299H26V378H43.2289V430.299Z" fill="#333333"/>
<path d="M278.56 430.299V419.371H267.205V378H260.157L249.976 387.367V414.687L256.633 430.299H278.56Z" fill="#333333"/>
<path d="M273.47 378V388.928H284.042V395.173H300.488V388.538L291.09 378H273.47Z" fill="#333333"/>
<path d="M336.512 430.299H348.259L358.44 420.932V387.367L348.259 378H336.512V388.928H341.211V419.371H336.512V430.299Z" fill="#333333"/>
<path d="M330.247 378H318.5L308.319 387.367V420.932L318.5 430.299H330.247V419.371H325.548V388.928H330.247V378Z" fill="#333333"/>
<path d="M398.813 430.299L380.747 400.578L367.054 378H385.458L401.12 403.512V378H416V430.299H398.813Z" fill="#333333"/>
<path d="M366.663 389.709L382.325 415.468V430.299H366.663V389.709Z" fill="#333333"/>
<path d="M136.422 430.299H155.217L160.082 423.078L150.755 409.028L136.422 430.299Z" fill="#333333"/>
<path d="M276.602 411.565V401.417H300.488V430.299H284.825V411.565H276.602Z" fill="#333333"/>
</svg>
