<svg width="260" height="300" viewBox="0 0 260 300" fill="none" xmlns="http://www.w3.org/2000/svg">
<path d="M181.933 29.9315L130 0L78.0701 29.93L104.236 45.0169L78.0846 60.2528V136.938H208.085L208.085 254.996L260 225V165.012L234.253 179.94V119.983L260 134.903V75L208.085 45.0042L208.085 110.815H181.916L181.916 60.1152L104.253 104.929V75.2247L181.933 29.9315Z" fill="white"/>
<path d="M182.006 270.026L155.84 254.939L181.916 239.747V163.062H51.9157L51.9158 45.0041L0 75V134.987L25.7469 120.056L25.7469 179.929L0 165.01V225L51.9158 254.996L51.9157 189.185H78.0846L78.0846 239.865L155.747 195.338V224.776L78.0494 270.058L130 300L182.006 270.026Z" fill="white"/>
</svg>
