<svg width="390" height="405" viewBox="0 0 390 405" fill="none" xmlns="http://www.w3.org/2000/svg">
<path d="M246.933 29.9315L195 0L143.07 29.93L169.236 45.0169L143.085 60.2528V136.938H273.085L273.085 254.996L325 225V165.012L299.253 179.94V119.983L325 134.903V75L273.085 45.0042L273.085 110.815H246.916L246.916 60.1152L169.253 104.929V75.2247L246.933 29.9315Z" fill="white"/>
<path d="M247.006 270.026L220.84 254.939L246.916 239.747V163.062H116.916L116.916 45.0041L65 75V134.987L90.7469 120.056L90.7469 179.929L65 165.01V225L116.916 254.996L116.916 189.185H143.085L143.085 239.865L220.747 195.338V224.776L143.049 270.058L195 300L247.006 270.026Z" fill="white"/>
<path d="M130.244 352L158.193 393.371L158.246 393.336L165.129 403.552L181.699 359.29L189.71 379.938L181.662 404.299H146.837L115.161 357.29L111.64 352H130.244Z" fill="white"/>
<path d="M151.113 371.711L141.735 357.829L145.663 352H164.458L151.145 371.757L151.113 371.711Z" fill="white"/>
<path d="M104.121 352H83.4036V362.928H111.205L108.111 357.993L104.121 352Z" fill="white"/>
<path d="M77.1386 352H59.9096V404.299H77.1386V383.223H97.3132V372.295H77.1386V352Z" fill="white"/>
<path d="M83.4036 392.59V404.299H102.199L110.03 392.59H83.4036Z" fill="white"/>
<path d="M193.545 388.297H199.734L193.212 371.546L193.193 371.6L185.588 352H202.831L223.584 404.299H205.964L203.685 398.444H190.301L191.851 393.424L193.545 388.297Z" fill="white"/>
<path d="M23.494 372.295H32.8916V352H50.1205V404.299H32.8916V383.223H23.494V372.295Z" fill="white"/>
<path d="M17.2289 404.299H0V352H17.2289V404.299Z" fill="white"/>
<path d="M252.56 404.299V393.371H241.205V352H234.157L223.976 361.367V388.687L230.633 404.299H252.56Z" fill="white"/>
<path d="M247.47 352V362.928H258.042V369.173H274.488V362.538L265.09 352H247.47Z" fill="white"/>
<path d="M310.512 404.299H322.259L332.44 394.932V361.367L322.259 352H310.512V362.928H315.211V393.371H310.512V404.299Z" fill="white"/>
<path d="M304.247 352H292.5L282.319 361.367V394.932L292.5 404.299H304.247V393.371H299.548V362.928H304.247V352Z" fill="white"/>
<path d="M372.813 404.299L354.747 374.578L341.054 352H359.458L375.12 377.512V352H390V404.299H372.813Z" fill="white"/>
<path d="M340.663 363.709L356.325 389.468V404.299H340.663V363.709Z" fill="white"/>
<path d="M110.422 404.299H129.217L134.082 397.078L124.755 383.028L110.422 404.299Z" fill="white"/>
<path d="M250.602 385.565V375.417H274.488V404.299H258.825V385.565H250.602Z" fill="white"/>
</svg>
