<svg width="1406" height="300" viewBox="0 0 1406 300" fill="none" xmlns="http://www.w3.org/2000/svg">
<path d="M181.933 29.9315L130 0L78.0701 29.93L104.236 45.0169L78.0846 60.2528V136.938H208.085L208.085 254.996L260 225V165.012L234.253 179.94V119.983L260 134.903V75L208.085 45.0042L208.085 110.815H181.916L181.916 60.1152L104.253 104.929V75.2247L181.933 29.9315Z" fill="#333333"/>
<path d="M182.006 270.026L155.84 254.939L181.916 239.747V163.062H51.9157L51.9158 45.0041L0 75V134.987L25.7469 120.056L25.7469 179.929L0 165.01V225L51.9158 254.996L51.9157 189.185H78.0846L78.0846 239.865L155.747 195.338V224.776L78.0494 270.058L130 300L182.006 270.026Z" fill="#333333"/>
<path d="M678.653 80L753.47 190.746L753.611 190.652L772.038 218L816.394 99.5151L837.839 154.787L816.296 220H723.072L638.277 94.1614L628.852 80H678.653Z" fill="#333333"/>
<path d="M734.518 132.766L709.413 95.604L719.928 80H770.241L734.602 132.889L734.518 132.766Z" fill="#333333"/>
<path d="M608.725 80H553.265V109.254H627.687L619.404 96.0423L608.725 80Z" fill="#333333"/>
<path d="M536.494 80H490.373V220H536.494V163.582H590.5V134.328H536.494V80Z" fill="#333333"/>
<path d="M553.265 188.657V220H603.578L624.542 188.657H553.265Z" fill="#333333"/>
<path d="M848.104 177.164H864.672L847.214 132.323L847.162 132.469L826.804 80H872.964L928.518 220H881.349L875.249 204.328H839.422L843.571 190.889L848.104 177.164Z" fill="#333333"/>
<path d="M392.892 134.328H418.048V80H464.169V220H418.048V163.582H392.892V134.328Z" fill="#333333"/>
<path d="M376.12 220H330V80H376.12V220Z" fill="#333333"/>
<path d="M1006.08 220V190.746H975.687V80H956.819L929.566 105.075V178.209L947.385 220H1006.08Z" fill="#333333"/>
<path d="M992.458 80V109.254H1020.76V125.97H1064.78V108.209L1039.63 80H992.458Z" fill="#333333"/>
<path d="M1161.22 220H1192.66L1219.92 194.925V105.075L1192.66 80H1161.22V109.254H1173.8V190.746H1161.22V220Z" fill="#333333"/>
<path d="M1144.45 80H1113L1085.75 105.075V194.925L1113 220H1144.45V190.746H1131.87V109.254H1144.45V80Z" fill="#333333"/>
<path d="M1327.99 220L1279.63 140.438L1242.98 80H1292.24L1334.17 148.293V80H1374V220H1327.99Z" fill="#333333"/>
<path d="M1241.93 111.343L1283.86 180.299V220H1241.93V111.343Z" fill="#333333"/>
<path d="M625.59 220H675.904L688.928 200.672L663.96 163.06L625.59 220Z" fill="#333333"/>
<path d="M1000.84 169.851V142.687H1064.78V220H1022.86V169.851H1000.84Z" fill="#333333"/>
</svg>
