<svg width="1514" height="440" viewBox="0 0 1514 440" fill="none" xmlns="http://www.w3.org/2000/svg">
<path d="M251.933 99.9315L200 70L148.07 99.93L174.236 115.017L148.085 130.253V206.938H278.085L278.085 324.996L330 295V235.012L304.253 249.94V189.983L330 204.903V145L278.085 115.004L278.085 180.815H251.916L251.916 130.115L174.253 174.929V145.225L251.933 99.9315Z" fill="#333333"/>
<path d="M252.006 340.026L225.84 324.939L251.916 309.747V233.062H121.916L121.916 115.004L70 145V204.987L95.7469 190.056L95.7469 249.929L70 235.01V295L121.916 324.996L121.916 259.185H148.085L148.085 309.865L225.747 265.338V294.776L148.049 340.058L200 370L252.006 340.026Z" fill="#333333"/>
<path d="M748.653 150L823.47 260.746L823.611 260.652L842.038 288L886.394 169.515L907.839 224.787L886.296 290H793.072L708.277 164.161L698.852 150H748.653Z" fill="#333333"/>
<path d="M804.518 202.766L779.413 165.604L789.928 150H840.241L804.602 202.889L804.518 202.766Z" fill="#333333"/>
<path d="M678.725 150H623.265V179.254H697.687L689.404 166.042L678.725 150Z" fill="#333333"/>
<path d="M606.494 150H560.373V290H606.494V233.582H660.5V204.328H606.494V150Z" fill="#333333"/>
<path d="M623.265 258.657V290H673.578L694.542 258.657H623.265Z" fill="#333333"/>
<path d="M918.104 247.164H934.672L917.214 202.323L917.162 202.469L896.804 150H942.964L998.518 290H951.349L945.249 274.328H909.422L913.571 260.889L918.104 247.164Z" fill="#333333"/>
<path d="M462.892 204.328H488.048V150H534.169V290H488.048V233.582H462.892V204.328Z" fill="#333333"/>
<path d="M446.12 290H400V150H446.12V290Z" fill="#333333"/>
<path d="M1076.08 290V260.746H1045.69V150H1026.82L999.566 175.075V248.209L1017.39 290H1076.08Z" fill="#333333"/>
<path d="M1062.46 150V179.254H1090.76V195.97H1134.78V178.209L1109.63 150H1062.46Z" fill="#333333"/>
<path d="M1231.22 290H1262.66L1289.92 264.925V175.075L1262.66 150H1231.22V179.254H1243.8V260.746H1231.22V290Z" fill="#333333"/>
<path d="M1214.45 150H1183L1155.75 175.075V264.925L1183 290H1214.45V260.746H1201.87V179.254H1214.45V150Z" fill="#333333"/>
<path d="M1397.99 290L1349.63 210.438L1312.98 150H1362.24L1404.17 218.293V150H1444V290H1397.99Z" fill="#333333"/>
<path d="M1311.93 181.343L1353.86 250.299V290H1311.93V181.343Z" fill="#333333"/>
<path d="M695.59 290H745.904L758.928 270.672L733.96 233.06L695.59 290Z" fill="#333333"/>
<path d="M1070.84 239.851V212.687H1134.78V290H1092.86V239.851H1070.84Z" fill="#333333"/>
</svg>
