<svg width="1444" height="370" viewBox="0 0 1444 370" fill="none" xmlns="http://www.w3.org/2000/svg">
<path d="M216.933 64.9315L165 35L113.07 64.93L139.236 80.0169L113.085 95.2528V171.938H243.085L243.085 289.996L295 260V200.012L269.253 214.94V154.983L295 169.903V110L243.085 80.0042L243.085 145.815H216.916L216.916 95.1152L139.253 139.929V110.225L216.933 64.9315Z" fill="#333333"/>
<path d="M217.006 305.026L190.84 289.939L216.916 274.747V198.062H86.9157L86.9158 80.0041L35 110V169.987L60.7469 155.056L60.7469 214.929L35 200.01V260L86.9158 289.996L86.9157 224.185H113.085L113.085 274.865L190.747 230.338V259.776L113.049 305.058L165 335L217.006 305.026Z" fill="#333333"/>
<path d="M713.653 115L788.47 225.746L788.611 225.652L807.038 253L851.394 134.515L872.839 189.787L851.296 255H758.072L673.277 129.161L663.852 115H713.653Z" fill="#333333"/>
<path d="M769.518 167.766L744.413 130.604L754.928 115H805.241L769.602 167.889L769.518 167.766Z" fill="#333333"/>
<path d="M643.725 115H588.265V144.254H662.687L654.404 131.042L643.725 115Z" fill="#333333"/>
<path d="M571.494 115H525.373V255H571.494V198.582H625.5V169.328H571.494V115Z" fill="#333333"/>
<path d="M588.265 223.657V255H638.578L659.542 223.657H588.265Z" fill="#333333"/>
<path d="M883.104 212.164H899.672L882.214 167.323L882.162 167.469L861.804 115H907.964L963.518 255H916.349L910.249 239.328H874.422L878.571 225.889L883.104 212.164Z" fill="#333333"/>
<path d="M427.892 169.328H453.048V115H499.169V255H453.048V198.582H427.892V169.328Z" fill="#333333"/>
<path d="M411.12 255H365V115H411.12V255Z" fill="#333333"/>
<path d="M1041.08 255V225.746H1010.69V115H991.819L964.566 140.075V213.209L982.385 255H1041.08Z" fill="#333333"/>
<path d="M1027.46 115V144.254H1055.76V160.97H1099.78V143.209L1074.63 115H1027.46Z" fill="#333333"/>
<path d="M1196.22 255H1227.66L1254.92 229.925V140.075L1227.66 115H1196.22V144.254H1208.8V225.746H1196.22V255Z" fill="#333333"/>
<path d="M1179.45 115H1148L1120.75 140.075V229.925L1148 255H1179.45V225.746H1166.87V144.254H1179.45V115Z" fill="#333333"/>
<path d="M1362.99 255L1314.63 175.438L1277.98 115H1327.24L1369.17 183.293V115H1409V255H1362.99Z" fill="#333333"/>
<path d="M1276.93 146.343L1318.86 215.299V255H1276.93V146.343Z" fill="#333333"/>
<path d="M660.59 255H710.904L723.928 235.672L698.96 198.06L660.59 255Z" fill="#333333"/>
<path d="M1035.84 204.851V177.687H1099.78V255H1057.86V204.851H1035.84Z" fill="#333333"/>
</svg>
