<svg width="120" height="120" viewBox="0 0 120 120" fill="none" xmlns="http://www.w3.org/2000/svg">
<path d="M60 0L111.962 30V90L60 120L8.03848 90V30L60 0Z" fill="white"/>
<path d="M74.8532 26.3808L60.3371 18L45.8218 26.3804L53.1356 30.6047L45.8259 34.8708V56.3427H82.163L82.163 89.3988L96.6742 81V64.2034L89.4776 68.3833V51.5954L96.6742 55.7728V39L82.163 30.6012L82.163 49.0281H74.8484L74.8484 34.8323L53.1405 47.3802V39.0629L74.8532 26.3808Z" fill="#333333"/>
<path d="M74.8736 93.6074L67.5598 89.383L74.8484 85.1292V63.6573H38.5113L38.5113 30.6011L24 39V55.7965L31.1967 51.6158L31.1967 68.3802L24 64.2027V81L38.5113 89.3989L38.5113 70.9719H45.8259L45.8259 85.1623L67.5338 72.6948V80.9372L45.816 93.6163L60.3371 102L74.8736 93.6074Z" fill="#333333"/>
</svg>
