<svg width="120" height="120" viewBox="0 0 120 120" fill="none" xmlns="http://www.w3.org/2000/svg">
<path d="M0 60C0 26.8629 26.8629 0 60 0C93.1371 0 120 26.8629 120 60C120 93.1371 93.1371 120 60 120C26.8629 120 0 93.1371 0 60Z" fill="white"/>
<path d="M74.9558 26.3808L60.1251 18L45.295 26.3804L52.7674 30.6047L45.2992 34.8708V56.3427H82.4242L82.4242 89.3988L97.25 81V64.2034L89.8974 68.3833V51.5954L97.25 55.7728V39L82.4242 30.6012L82.4242 49.0281H74.9509L74.951 34.8323L52.7724 47.3802V39.0629L74.9558 26.3808Z" fill="#333333"/>
<path d="M74.9767 93.6074L67.5044 89.383L74.951 85.1292V63.6573H37.8259L37.826 30.6011L23 39V55.7965L30.3527 51.6158L30.3527 68.3802L23 64.2027V81L37.826 89.3989L37.8259 70.9719H45.2992L45.2992 85.1623L67.4777 72.6948V80.9372L45.2891 93.6162L60.1251 102L74.9767 93.6074Z" fill="#333333"/>
</svg>
